<svg width="53" height="39" viewBox="0 0 53 39" fill="none" xmlns="http://www.w3.org/2000/svg">
<path d="M6.86204 3.40801V7.88401H12.67V10.608H6.86204V15.18H14.326V18H3.23804V0.588013H14.326V3.40801H6.86204Z" fill="white"/>
<path d="M22.9844 12.828C22.1764 12.868 21.5044 12.94 20.9684 13.044C20.4324 13.14 20.0044 13.268 19.6844 13.428C19.3724 13.588 19.1484 13.772 19.0124 13.98C18.8844 14.18 18.8204 14.4 18.8204 14.64C18.8204 15.12 18.9524 15.46 19.2164 15.66C19.4884 15.86 19.8644 15.96 20.3444 15.96C20.8964 15.96 21.3724 15.864 21.7724 15.672C22.1804 15.472 22.5844 15.164 22.9844 14.748V12.828ZM16.2404 7.34401C16.9684 6.68801 17.7724 6.20001 18.6524 5.88001C19.5324 5.55201 20.4844 5.38801 21.5084 5.38801C22.2444 5.38801 22.9004 5.50801 23.4764 5.74801C24.0604 5.98801 24.5524 6.32401 24.9524 6.75601C25.3604 7.18001 25.6724 7.68801 25.8884 8.28001C26.1044 8.87201 26.2124 9.52001 26.2124 10.224V18H24.7004C24.3884 18 24.1484 17.956 23.9804 17.868C23.8204 17.78 23.6884 17.596 23.5844 17.316L23.3204 16.524C23.0084 16.796 22.7044 17.036 22.4084 17.244C22.1204 17.452 21.8204 17.628 21.5084 17.772C21.1964 17.908 20.8604 18.012 20.5004 18.084C20.1484 18.156 19.7524 18.192 19.3124 18.192C18.7684 18.192 18.2724 18.12 17.8244 17.976C17.3764 17.832 16.9884 17.62 16.6604 17.34C16.3404 17.052 16.0924 16.696 15.9164 16.272C15.7404 15.848 15.6524 15.36 15.6524 14.808C15.6524 14.352 15.7684 13.896 16.0004 13.44C16.2324 12.984 16.6284 12.572 17.1884 12.204C17.7564 11.828 18.5084 11.52 19.4444 11.28C20.3884 11.032 21.5684 10.892 22.9844 10.86V10.224C22.9844 9.44801 22.8204 8.88001 22.4924 8.52001C22.1644 8.15201 21.6924 7.96801 21.0764 7.96801C20.6204 7.96801 20.2404 8.02401 19.9364 8.13601C19.6324 8.24001 19.3644 8.35601 19.1324 8.48401C18.9084 8.60401 18.6964 8.72001 18.4964 8.83201C18.2964 8.93601 18.0644 8.98801 17.8004 8.98801C17.5684 8.98801 17.3724 8.93201 17.2124 8.82001C17.0604 8.70001 16.9324 8.56001 16.8284 8.40001L16.2404 7.34401Z" fill="white"/>
<path d="M36.4897 8.17201C36.4017 8.30801 36.3097 8.40801 36.2137 8.47201C36.1257 8.52801 36.0017 8.55601 35.8417 8.55601C35.6817 8.55601 35.5177 8.51601 35.3497 8.43601C35.1817 8.35601 34.9937 8.27201 34.7857 8.18401C34.5777 8.08801 34.3377 8.00001 34.0657 7.92001C33.8017 7.84001 33.4937 7.80001 33.1417 7.80001C32.6057 7.80001 32.1897 7.91201 31.8937 8.13601C31.5977 8.35201 31.4497 8.64001 31.4497 9.00001C31.4497 9.24801 31.5337 9.45601 31.7017 9.62401C31.8697 9.79201 32.0897 9.94001 32.3617 10.068C32.6417 10.188 32.9577 10.304 33.3097 10.416C33.6617 10.52 34.0217 10.636 34.3897 10.764C34.7657 10.892 35.1297 11.04 35.4817 11.208C35.8337 11.376 36.1457 11.588 36.4177 11.844C36.6977 12.092 36.9217 12.396 37.0897 12.756C37.2577 13.108 37.3417 13.536 37.3417 14.04C37.3417 14.64 37.2297 15.196 37.0057 15.708C36.7897 16.212 36.4697 16.648 36.0457 17.016C35.6217 17.384 35.0937 17.672 34.4617 17.88C33.8297 18.088 33.1017 18.192 32.2777 18.192C31.8537 18.192 31.4337 18.152 31.0177 18.072C30.6017 18 30.2057 17.896 29.8297 17.76C29.4537 17.616 29.1017 17.452 28.7737 17.268C28.4457 17.084 28.1617 16.884 27.9217 16.668L28.6897 15.432C28.7777 15.288 28.8857 15.176 29.0137 15.096C29.1497 15.016 29.3217 14.976 29.5297 14.976C29.7297 14.976 29.9137 15.028 30.0817 15.132C30.2497 15.228 30.4377 15.336 30.6457 15.456C30.8537 15.568 31.0977 15.676 31.3777 15.78C31.6657 15.876 32.0217 15.924 32.4457 15.924C32.7657 15.924 33.0417 15.888 33.2737 15.816C33.5057 15.744 33.6937 15.648 33.8377 15.528C33.9817 15.4 34.0857 15.26 34.1497 15.108C34.2217 14.948 34.2577 14.784 34.2577 14.616C34.2577 14.344 34.1697 14.124 33.9937 13.956C33.8257 13.78 33.6017 13.628 33.3217 13.5C33.0497 13.372 32.7337 13.256 32.3737 13.152C32.0137 13.048 31.6457 12.932 31.2697 12.804C30.9017 12.676 30.5377 12.524 30.1777 12.348C29.8257 12.172 29.5097 11.952 29.2297 11.688C28.9577 11.416 28.7337 11.084 28.5577 10.692C28.3897 10.3 28.3057 9.82401 28.3057 9.26401C28.3057 8.75201 28.4057 8.26801 28.6057 7.81201C28.8057 7.34801 29.1057 6.94001 29.5057 6.58801C29.9057 6.23601 30.4017 5.95601 30.9937 5.74801C31.5937 5.54001 32.2857 5.43601 33.0697 5.43601C33.9497 5.43601 34.7497 5.58001 35.4697 5.86801C36.1897 6.15601 36.7817 6.53201 37.2457 6.99601L36.4897 8.17201Z" fill="white"/>
<path d="M50.6525 5.62801L43.9805 21.324C43.8765 21.548 43.7485 21.716 43.5965 21.828C43.4525 21.94 43.2205 21.996 42.9005 21.996H40.4405L42.7805 17.004L37.8125 5.62801H40.7165C40.9805 5.62801 41.1845 5.68801 41.3285 5.80801C41.4725 5.92801 41.5765 6.06801 41.6405 6.22801L43.9925 12.144C44.0805 12.376 44.1565 12.612 44.2205 12.852C44.2925 13.084 44.3605 13.316 44.4245 13.548C44.5685 13.076 44.7325 12.604 44.9165 12.132L47.1005 6.22801C47.1645 6.05201 47.2805 5.90801 47.4485 5.79601C47.6165 5.68401 47.8005 5.62801 48.0005 5.62801H50.6525Z" fill="white"/>
<path d="M5.97741 29.252C7.10541 29.252 7.92941 28.98 8.44941 28.436C8.97741 27.892 9.24141 27.148 9.24141 26.204C9.24141 25.772 9.17341 25.38 9.03741 25.028C8.90941 24.668 8.70941 24.364 8.43741 24.116C8.17341 23.86 7.83741 23.664 7.42941 23.528C7.02141 23.392 6.53741 23.324 5.97741 23.324H3.69741V29.252H5.97741ZM5.97741 20.588C7.16941 20.588 8.19741 20.728 9.06141 21.008C9.93341 21.288 10.6494 21.68 11.2094 22.184C11.7694 22.68 12.1814 23.272 12.4454 23.96C12.7174 24.648 12.8534 25.396 12.8534 26.204C12.8534 27.06 12.7134 27.844 12.4334 28.556C12.1534 29.268 11.7294 29.88 11.1614 30.392C10.5934 30.904 9.87741 31.304 9.01341 31.592C8.14941 31.872 7.13741 32.012 5.97741 32.012H3.69741V38H0.0974121V20.588H5.97741Z" fill="white"/>
<path d="M18.0728 25.628V38H14.7608V25.628H18.0728ZM18.4688 22.112C18.4688 22.392 18.4128 22.652 18.3008 22.892C18.1889 23.132 18.0368 23.344 17.8448 23.528C17.6608 23.712 17.4408 23.856 17.1848 23.96C16.9368 24.064 16.6688 24.116 16.3808 24.116C16.1088 24.116 15.8489 24.064 15.6009 23.96C15.3609 23.856 15.1488 23.712 14.9648 23.528C14.7808 23.344 14.6329 23.132 14.5209 22.892C14.4169 22.652 14.3649 22.392 14.3649 22.112C14.3649 21.832 14.4169 21.572 14.5209 21.332C14.6329 21.084 14.7808 20.868 14.9648 20.684C15.1488 20.5 15.3609 20.356 15.6009 20.252C15.8489 20.148 16.1088 20.096 16.3808 20.096C16.6688 20.096 16.9368 20.148 17.1848 20.252C17.4408 20.356 17.6608 20.5 17.8448 20.684C18.0368 20.868 18.1889 21.084 18.3008 21.332C18.4128 21.572 18.4688 21.832 18.4688 22.112Z" fill="white"/>
<path d="M25.1712 38.192C24.6112 38.192 24.1152 38.112 23.6832 37.952C23.2512 37.784 22.8872 37.548 22.5912 37.244C22.2952 36.94 22.0712 36.572 21.9192 36.14C21.7672 35.708 21.6912 35.22 21.6912 34.676V28.004H20.5272C20.3512 28.004 20.1992 27.948 20.0712 27.836C19.9512 27.724 19.8912 27.556 19.8912 27.332V26.036L21.8712 25.676L22.5432 22.472C22.6312 22.112 22.8752 21.932 23.2752 21.932H25.0032V25.7H28.1952V28.004H25.0032V34.46C25.0032 34.804 25.0832 35.076 25.2432 35.276C25.4112 35.476 25.6472 35.576 25.9512 35.576C26.1112 35.576 26.2472 35.56 26.3592 35.528C26.4712 35.488 26.5672 35.448 26.6472 35.408C26.7272 35.36 26.7992 35.32 26.8632 35.288C26.9352 35.248 27.0072 35.228 27.0792 35.228C27.1752 35.228 27.2552 35.252 27.3192 35.3C27.3832 35.34 27.4472 35.412 27.5112 35.516L28.5072 37.1C28.0512 37.46 27.5352 37.732 26.9592 37.916C26.3832 38.1 25.7872 38.192 25.1712 38.192Z" fill="white"/>
<path d="M38.8284 28.388C38.7323 28.516 38.6363 28.616 38.5403 28.688C38.4443 28.752 38.3083 28.784 38.1323 28.784C37.9723 28.784 37.8163 28.74 37.6643 28.652C37.5203 28.556 37.3524 28.456 37.1604 28.352C36.9683 28.24 36.7403 28.14 36.4763 28.052C36.2123 27.956 35.8843 27.908 35.4923 27.908C34.9963 27.908 34.5644 28 34.1964 28.184C33.8363 28.36 33.5364 28.616 33.2963 28.952C33.0563 29.288 32.8763 29.696 32.7563 30.176C32.6443 30.656 32.5883 31.196 32.5883 31.796C32.5883 33.06 32.8403 34.028 33.3443 34.7C33.8563 35.372 34.5523 35.708 35.4324 35.708C35.7364 35.708 35.9963 35.684 36.2123 35.636C36.4363 35.58 36.6283 35.512 36.7883 35.432C36.9563 35.352 37.1003 35.264 37.2203 35.168C37.3403 35.072 37.4523 34.984 37.5563 34.904C37.6683 34.824 37.7763 34.76 37.8803 34.712C37.9923 34.656 38.1163 34.628 38.2523 34.628C38.5084 34.628 38.7083 34.724 38.8523 34.916L39.8004 36.116C39.4483 36.524 39.0723 36.864 38.6723 37.136C38.2723 37.4 37.8563 37.612 37.4244 37.772C37.0004 37.924 36.5683 38.028 36.1283 38.084C35.6884 38.148 35.2523 38.18 34.8203 38.18C34.0603 38.18 33.3403 38.04 32.6603 37.76C31.9803 37.472 31.3843 37.056 30.8723 36.512C30.3603 35.968 29.9524 35.3 29.6483 34.508C29.3524 33.716 29.2043 32.812 29.2043 31.796C29.2043 30.892 29.3363 30.052 29.6003 29.276C29.8643 28.5 30.2523 27.828 30.7643 27.26C31.2763 26.692 31.9083 26.248 32.6603 25.928C33.4203 25.6 34.2963 25.436 35.2883 25.436C36.2323 25.436 37.0603 25.588 37.7724 25.892C38.4844 26.196 39.1243 26.636 39.6923 27.212L38.8284 28.388Z" fill="white"/>
<path d="M44.7893 26.84C45.0213 26.632 45.2613 26.444 45.5093 26.276C45.7654 26.1 46.0333 25.952 46.3133 25.832C46.6013 25.704 46.9053 25.608 47.2253 25.544C47.5533 25.472 47.9053 25.436 48.2813 25.436C48.9534 25.436 49.5493 25.552 50.0693 25.784C50.5893 26.016 51.0253 26.34 51.3773 26.756C51.7373 27.172 52.0053 27.668 52.1813 28.244C52.3653 28.82 52.4573 29.452 52.4573 30.14V38H49.1573V30.14C49.1573 29.452 48.9973 28.92 48.6773 28.544C48.3573 28.16 47.8853 27.968 47.2613 27.968C46.7973 27.968 46.3614 28.068 45.9534 28.268C45.5453 28.468 45.1573 28.748 44.7893 29.108V38H41.4773V20.108H44.7893V26.84Z" fill="white"/>
</svg>
