<svg width="141" height="23" viewBox="0 0 141 23" fill="none" xmlns="http://www.w3.org/2000/svg">
<path d="M23.125 7.41791C23.125 5.53016 21.5863 4 19.6878 4H3.56222C1.6637 4 0.125 5.53016 0.125 7.41791V16.5821C0.125 18.4698 1.6637 20 3.56222 20H19.6878C21.5863 20 23.125 18.4698 23.125 16.5821V7.41791ZM9.325 15.8667V7.25841L15.8933 11.5624L9.325 15.8667Z" fill="white"/>
<path d="M49.4792 6.29236C49.4792 6.72077 49.4792 8.63293 49.4792 8.63293H47.75V11.495H49.4792V20H53.0312V11.4952H55.4148C55.4148 11.4952 55.638 10.1229 55.7463 8.62237C55.436 8.62237 53.0446 8.62237 53.0446 8.62237C53.0446 8.62237 53.0446 6.95732 53.0446 6.66547C53.0446 6.37299 53.4319 5.97956 53.8147 5.97956C54.1968 5.97956 55.0031 5.97956 55.75 5.97956C55.75 5.58989 55.75 4.24348 55.75 3C54.753 3 53.6187 3 53.1187 3C49.3914 2.9998 49.4792 5.8647 49.4792 6.29236Z" fill="white"/>
<path d="M96.4977 0.75H86.7521C83.4425 0.75 80.75 3.44267 80.75 6.75221V16.4978C80.75 19.8075 83.4425 22.5 86.7521 22.5H96.4977C99.8075 22.5 102.5 19.8073 102.5 16.4978V6.75221C102.5 3.44267 99.8075 0.75 96.4977 0.75ZM100.57 16.4978C100.57 18.7434 98.7434 20.5702 96.4978 20.5702H86.7521C84.5066 20.5704 82.6798 18.7434 82.6798 16.4978V6.75221C82.6798 4.50674 84.5066 2.67977 86.7521 2.67977H96.4977C98.7433 2.67977 100.57 4.50674 100.57 6.75221V16.4978H100.57Z" fill="white"/>
<path d="M91.6251 6.02084C88.5347 6.02084 86.0206 8.53494 86.0206 11.6253C86.0206 14.7155 88.5347 17.2294 91.6251 17.2294C94.7154 17.2294 97.2295 14.7155 97.2295 11.6253C97.2295 8.53494 94.7154 6.02084 91.6251 6.02084ZM91.6251 15.2995C89.5989 15.2995 87.9504 13.6513 87.9504 11.6251C87.9504 9.59889 89.5988 7.95048 91.6251 7.95048C93.6513 7.95048 95.2997 9.59889 95.2997 11.6251C95.2997 13.6513 93.6512 15.2995 91.6251 15.2995Z" fill="white"/>
<path d="M97.4645 4.38452C97.0927 4.38452 96.7274 4.53504 96.4649 4.79878C96.201 5.06123 96.0493 5.42659 96.0493 5.79968C96.0493 6.17161 96.2011 6.53685 96.4649 6.80059C96.7273 7.06304 97.0927 7.21484 97.4645 7.21484C97.8376 7.21484 98.2016 7.06304 98.4654 6.80059C98.7291 6.53685 98.8796 6.17148 98.8796 5.79968C98.8796 5.42659 98.7291 5.06123 98.4654 4.79878C98.2029 4.53504 97.8376 4.38452 97.4645 4.38452Z" fill="white"/>
<path d="M141 5.77577C140.293 6.07692 139.541 6.27654 138.756 6.37346C139.563 5.905 140.179 5.16885 140.469 4.28154C139.716 4.71769 138.885 5.02577 137.999 5.19769C137.284 4.45808 136.265 4 135.154 4C132.997 4 131.261 5.70077 131.261 7.78577C131.261 8.08577 131.287 8.37423 131.352 8.64885C128.113 8.49538 125.248 6.98731 123.323 4.69C122.987 5.25654 122.79 5.905 122.79 6.60308C122.79 7.91385 123.484 9.07577 124.52 9.74846C123.894 9.73692 123.28 9.56038 122.76 9.28231C122.76 9.29385 122.76 9.30885 122.76 9.32385C122.76 11.1631 124.11 12.6908 125.881 13.0427C125.564 13.1269 125.218 13.1673 124.859 13.1673C124.61 13.1673 124.358 13.1535 124.122 13.1027C124.627 14.6015 126.059 15.7035 127.762 15.7392C126.437 16.7465 124.754 17.3535 122.932 17.3535C122.613 17.3535 122.306 17.3396 122 17.3015C123.725 18.3827 125.77 19 127.976 19C135.143 19 139.062 13.2308 139.062 8.23C139.062 8.06269 139.056 7.90115 139.048 7.74077C139.821 7.20769 140.47 6.54192 141 5.77577Z" fill="white"/>
</svg>
